<?xml version="1.0" encoding="UTF-8" standalone="no"?>
<svg
   xmlns:dc="http://purl.org/dc/elements/1.1/"
   xmlns:cc="http://creativecommons.org/ns#"
   xmlns:rdf="http://www.w3.org/1999/02/22-rdf-syntax-ns#"
   xmlns:svg="http://www.w3.org/2000/svg"
   xmlns="http://www.w3.org/2000/svg"
   xmlns:sodipodi="http://sodipodi.sourceforge.net/DTD/sodipodi-0.dtd"
   xmlns:inkscape="http://www.inkscape.org/namespaces/inkscape"
   inkscape:version="0.92.4 (5da689c313, 2019-01-14)"
   sodipodi:docname="x.svg"
   id="svg108"
   version="1.1"
   viewBox="0 0 270.18573 366.89418"
   height="368"
   width="271">
  <metadata
     id="metadata114">
    <rdf:RDF>
      <cc:Work
         rdf:about="">
        <dc:format>image/svg+xml</dc:format>
        <dc:type
           rdf:resource="http://purl.org/dc/dcmitype/StillImage" />
        <dc:title></dc:title>
      </cc:Work>
    </rdf:RDF>
  </metadata>
  <defs
     id="defs112" />
  <sodipodi:namedview
     inkscape:current-layer="svg108"
     inkscape:window-maximized="1"
     inkscape:window-y="-8"
     inkscape:window-x="-8"
     inkscape:cy="243.07136"
     inkscape:cx="134.65496"
     inkscape:zoom="1.66"
     showgrid="false"
     id="namedview110"
     inkscape:window-height="705"
     inkscape:window-width="1366"
     inkscape:pageshadow="2"
     inkscape:pageopacity="0"
     guidetolerance="10"
     gridtolerance="10"
     objecttolerance="10"
     borderopacity="1"
     bordercolor="#666666"
     pagecolor="#ffffff"
     units="px"
     width="271mm" />
  <g
     transform="matrix(1.2845661,0,0,1.2731655,-43.540108,-33.460793)"
     id="surface1"
     style="stroke-width:0.78195053;fill:#000000">
    <path
       id="path63"
       d="m 129.12891,27.445312 c -17.63282,2 -32.94141,7.519532 -47.312504,17.078126 C 71.808594,51.1875 63.058594,59.433594 55.839844,68.992188 48.050781,79.339844 42.042969,91.488281 38.613281,103.89063 c -1.261719,4.625 -2.421875,10.17968 -2.792969,13.47656 -0.08594,0.91015 -0.253906,21.70703 -0.386718,52.5 l -0.21875,50.98437 0.402344,2.72656 c 2.441406,16.96094 9.289062,33.45313 19.617187,47.26954 4.339844,5.82031 10.683594,12.60156 16.019531,17.14453 16,13.59765 35.312504,22.04297 55.941404,24.46875 8.57813,1.00781 18.52344,0.89062 27.00391,-0.32032 29.4414,-4.24218 55.77344,-20.8164 72.3789,-45.60156 8.24219,-12.30078 13.59375,-25.66015 16.30079,-40.73828 0.42187,-2.33984 0.4375,-2.74219 0.57421,-12.18359 0.0664,-5.36719 0.1836,-29.00782 0.23438,-52.51563 l 0.11719,-42.77343 -0.35157,-2.32422 c -2.58984,-17.011722 -9.52343,-33.382816 -20.0039,-47.265629 -3.73438,-4.949219 -9.74219,-11.410156 -14.3711,-15.449219 -16.14843,-14.117187 -34.85937,-22.5625 -56.48046,-25.542968 -2.58985,-0.367188 -3.42969,-0.386719 -12.44922,-0.417969 -5.31641,-0.01953 -10.27735,0.03125 -11.01953,0.117187 z m 19.9375,4.089844 c 9.70703,0.972656 18.82812,3.179688 27.91015,6.761719 3.5,1.382813 10.76953,4.964844 13.98438,6.882813 11.79297,7.101562 21.55078,15.851562 29.57812,26.585937 9.6211,12.839844 15.83203,27.363281 18.53906,43.332035 l 0.52344,3.11328 -0.10156,51.23437 c -0.10156,50.12891 -0.11719,51.28906 -0.4375,53.59375 -3.28125,22.82031 -14.92578,44.52735 -32.20313,59.95703 -7.37109,6.57813 -14.40234,11.33985 -23.05078,15.59766 -6.1914,3.04687 -11.17187,4.96484 -17.58203,6.74609 -7.73828,2.17188 -17.51172,3.60157 -24.49609,3.60157 h -2.25391 l -0.0156,0.875 -0.0195,0.89453 -0.19922,-0.84375 -0.20313,-0.83985 -1.59765,-0.0351 c -23.25391,-0.53907 -44.988285,-8.75 -63.078129,-23.82813 -2.890625,-2.42187 -9,-8.46094 -11.421875,-11.30469 -12.46875,-14.60546 -20.289062,-31.65234 -23.152344,-50.39843 l -0.417968,-2.77735 0.25,-51.23828 c 0.285156,-56.45312 0.167968,-51.6914 1.347656,-57.59765 3.261719,-16.238285 10.597656,-31.398441 21.535156,-44.539066 2.757813,-3.316406 9.019532,-9.574219 12.28125,-12.300782 17.042969,-14.167968 36.593754,-22.0625 58.718754,-23.710937 2.94531,-0.21875 12.48437,-0.06641 15.5625,0.238281 z m 0,0"
       style="fill:#000000;fill-opacity:1;fill-rule:nonzero;stroke:none;stroke-width:0.78195053"
       inkscape:connector-curvature="0" />
    <path
       id="path65"
       d="m 162.52734,39.964844 c -1.75,0.488281 -3.04687,1.246094 -4.32422,2.523437 -1.71875,1.75 -2.66015,3.835938 -3.07812,6.796875 -0.10156,0.691406 -0.20313,1.28125 -0.23828,1.3125 -0.0312,0.03516 -0.80469,-0.05078 -1.71485,-0.183594 -4.12109,-0.625 -7.6875,-0.84375 -13.61328,-0.84375 -4.57422,-0.01562 -6.47656,0.05078 -8.57812,0.289063 -2.5586,0.285156 -8.69922,1.125 -8.78125,1.195313 -0.0703,0.06641 0.65625,2.707031 0.77344,2.84375 0.0664,0.06641 1.09375,-0.03516 2.30468,-0.21875 4.66016,-0.707032 8.27735,-1.046876 12.31641,-1.128907 l 4.07031,-0.101562 v 0.574219 c 0,0.316406 0.0508,0.722656 0.10156,0.921874 0.10157,0.355469 0.082,0.355469 -6.10937,0.472657 -3.39844,0.06641 -6.46094,0.203125 -6.8125,0.285156 -1.86719,0.488281 -3.24609,2.304687 -3.24609,4.257813 0.0156,1.9375 1.125,3.550781 3.14453,4.5625 l 1.19531,0.585937 h 5.71875 c 6.22656,0 6.76562,0.07031 7.45312,0.894531 0.82422,0.972656 0.72266,1.933594 -0.26953,2.589844 -2.01562,1.363281 -5.44922,1.277344 -10.93359,-0.269531 l -1.76953,-0.503907 -1.48047,1.480469 -1.49609,1.480469 4.17187,3.515625 c 2.28906,1.9375 4.29297,3.601563 4.44141,3.71875 0.23828,0.167969 0.4375,0 1.36328,-1.09375 1.73437,-2.050781 1.64844,-1.867187 0.9414,-2.472656 -0.33593,-0.300781 -0.62109,-0.570313 -0.62109,-0.621094 0,-0.05078 0.70703,-0.101563 1.58203,-0.101563 4.86328,-0.05078 8.16016,-2.304687 8.83203,-6.023437 0.45313,-2.457031 -0.80859,-5.015625 -2.97656,-6.074219 l -0.96094,-0.472656 -6.33984,0.06641 -6.34375,0.05078 -0.42188,-0.421876 c -0.5039,-0.503906 -0.53906,-0.753906 -0.20312,-1.226562 0.23828,-0.304688 0.57422,-0.320312 7.53906,-0.421875 4.00391,-0.06641 7.41797,-0.117187 7.58594,-0.132813 0.25391,-0.01562 0.28906,-0.269531 0.28906,-2.710937 v -2.691406 l 0.38672,0.06641 c 0.19922,0.05078 1.00781,0.136719 1.80078,0.1875 1.39453,0.101563 6.05469,0.707031 6.15625,0.804687 0.0156,0.01953 -1.05859,4.308594 -2.39062,9.527344 -1.86719,7.25 -2.40235,9.523438 -2.23438,9.625 0.40235,0.25 3.73438,1.007813 3.85156,0.875 0.0664,-0.07031 0.47266,-1.53125 0.89063,-3.25 1.98437,-7.90625 4.03906,-15.75 4.14062,-15.867187 0.10157,-0.101563 3.17969,0.488281 3.36329,0.65625 0.0156,0.01563 -0.55469,1.886719 -1.3125,4.140625 -1.53125,4.574218 -1.66407,5.46875 -1.02735,6.796875 0.72656,1.480469 2.76172,2.878906 4.94922,3.417969 0.46875,0.117187 1.48047,0.199218 2.25391,0.21875 3.24609,0 4.625,-1.601563 6.61328,-7.707032 l 0.875,-2.726562 0.60547,0.25 c 3.21093,1.332031 8.86328,4.394531 12.39843,6.714844 2.40625,1.582031 5.78907,4.105468 5.78907,4.324218 0,0.335938 -1.0625,1.480469 -1.29688,1.398438 -0.11719,-0.05078 -2.13672,-1.378906 -4.45703,-2.960938 -2.32422,-1.582031 -4.5625,-3.046875 -5,-3.265625 -3.93359,-1.96875 -7.85547,0.167969 -7.80469,4.273438 0.0312,2.660156 3.11328,6.964843 8.48047,11.878906 0.78906,0.726563 1.16016,1.195313 1.24219,1.601563 0.12109,0.519531 0.0703,0.605468 -0.6875,1.277343 -0.45703,0.402344 -1.23047,0.925781 -1.71875,1.160157 -1.61328,0.808593 -3.69922,0.355468 -5.23047,-1.144532 -0.92578,-0.90625 -1.48047,-2.085937 -3.28125,-6.847656 -0.78906,-2.070312 -1.46484,-3.804688 -1.51562,-3.835938 -0.0664,-0.06641 -3.76563,1.078126 -3.9336,1.226563 -0.1875,0.136719 3.23047,8.917969 3.9336,10.113281 0.77734,1.332032 2.07031,2.710938 3.35156,3.566406 3.93359,2.625 8.47656,2.039063 11.77734,-1.53125 1.3086,-1.410156 1.83203,-2.488281 1.83203,-3.75 0,-1.9375 -0.9414,-3.28125 -4.30859,-6.191406 -4.32422,-3.71875 -6.22266,-6.261718 -5.76953,-7.675781 0.13281,-0.4375 0.78906,-0.621094 1.49609,-0.402344 0.28906,0.08203 3.12891,1.933594 6.3125,4.089844 3.16016,2.152344 5.85156,3.917969 5.98828,3.9375 0.11719,0 1.02735,-0.945313 2.01953,-2.136719 l 1.80079,-2.136718 1.17578,1.042968 c 3.46484,3.0625 8.96875,9.65625 9.38672,11.238282 0.42187,1.546874 -0.19922,4.628906 -1.42969,7.167968 -1.10938,2.304688 -2.11719,3.128906 -3.80078,3.128906 -1.98438,0 -3.02735,-1.613281 -2.66016,-4.1875 0.0859,-0.574218 0.33984,-1.9375 0.57422,-3.011718 0.23437,-1.0625 0.42187,-1.96875 0.42187,-2.019532 0,-0.1875 -1.29687,-0.01562 -2.77734,0.351563 -4.59375,1.164063 -7.38672,3.71875 -7.99219,7.355469 -0.70703,4.136718 2.13672,10.38282 6.22657,13.62891 0.60546,0.47266 1.14062,0.92578 1.22656,0.97656 0.0664,0.0664 -0.78906,0.3711 -1.90235,0.6875 -1.10937,0.32032 -2.01953,0.64063 -2.01953,0.74219 0,0.0859 0.25391,0.99219 0.5586,2.01953 0.40234,1.32813 0.63672,1.83203 0.80468,1.81641 0.13672,-0.0312 5.23438,-1.53125 11.32422,-3.33203 6.08985,-1.80078 11.17188,-3.28125 11.28907,-3.28125 0.2539,0 0.57421,1.51562 1.16015,5.51953 0.0508,0.28515 -0.0508,0.4375 -0.30078,0.52344 -0.1875,0.082 -5.23437,1.29296 -11.20703,2.70703 -5.97266,1.41406 -10.90234,2.60937 -10.96875,2.67578 -0.10156,0.10156 0.72266,3.78515 0.89062,3.97265 0.0859,0.0664 20.3086,-4.66015 21.73829,-5.0664 0.2539,-0.082 0.28515,0.0664 0.28515,1.59765 v 1.69922 h 3.07813 l -0.0977,-3.16015 C 220.83984,101.73438 213.82422,86.203125 201.28906,73.769531 190.92578,63.472656 177.39844,55.984375 162.41016,52.230469 l -3.25,-0.808594 v -0.605469 c 0,-1.984375 0.89453,-4.238281 2.12109,-5.367187 1.27734,-1.195313 2.01953,-1.445313 4.27344,-1.445313 1.68359,0 2.12109,0.06641 3.3125,0.46875 1.55078,0.539063 3.55078,1.683594 5.14843,2.945313 2.3086,1.835937 5.83985,5.972656 7.4375,8.699219 0.35547,0.605468 0.70704,1.09375 0.79297,1.09375 0.0977,0 0.95703,-0.4375 1.91797,-0.957032 l 1.75,-0.945312 -0.4375,-0.773438 c -1.63281,-2.84375 -4.47656,-6.476562 -6.73047,-8.582031 -2.89453,-2.707031 -5.72265,-4.492187 -8.73437,-5.5 -1.73047,-0.589844 -2,-0.625 -4.20313,-0.691406 -1.73437,-0.03516 -2.60937,0.01563 -3.28125,0.203125 z m 5.46485,17.078125 c 1.11328,0.371093 2.10547,0.707031 2.22265,0.757812 0.13282,0.05078 -0.0508,0.789063 -0.60547,2.472657 -1.42968,4.273437 -2.12109,5.351562 -3.41406,5.351562 -0.72656,0 -1.68359,-0.4375 -2.12109,-0.992188 -0.64063,-0.792968 -0.60547,-0.941406 0.65625,-4.679687 0.67187,-1.96875 1.22656,-3.582031 1.24609,-3.582031 0,0 0.92578,0.300781 2.01563,0.671875 z m 45.42968,40.046875 c 1.44532,3.300786 2.53907,6.195316 2.38672,6.328126 -0.0664,0.0664 -3.07812,1.01172 -6.71093,2.10547 l -6.61329,1.96875 -0.92578,-0.50781 c -4.71093,-2.625 -7.55468,-6.3086 -8.07422,-10.449224 -0.1875,-1.429687 -0.0352,-2.238281 0.57032,-3.164062 0.52343,-0.773438 0.77343,-0.839844 0.77343,-0.199219 0.0195,0.890625 0.50782,2.792969 0.99219,3.835937 2.64453,5.652348 10.21485,5.082028 13.125,-0.976562 0.70703,-1.464844 1.19531,-3.414062 1.21094,-4.863281 v -0.890625 l 1.02734,2.019531 c 0.55469,1.109375 1.5625,3.261719 2.23828,4.792969 z m 0,0"
       style="fill:#000000;fill-opacity:1;fill-rule:nonzero;stroke:none;stroke-width:0.78195053"
       inkscape:connector-curvature="0" />
    <path
       id="path67"
       d="m 108.51953,54.839844 c -3.82031,1.414062 -6.03906,2.355468 -9.23828,3.953125 -8.140625,4.089843 -15.746094,9.625 -21.519531,15.667969 l -1.699219,1.765624 -7.839844,0.824219 c -4.324218,0.453125 -7.890625,0.875 -7.941406,0.925781 -0.132812,0.132813 -1.242188,5.871094 -1.191406,6.207032 0.03125,0.203125 0.535156,0.523437 1.511718,0.960937 0.808594,0.351563 1.5,0.605469 1.53125,0.539063 0.05078,-0.06641 0.355469,-0.960938 0.691407,-1.988282 l 0.621093,-1.867187 4.003907,-0.367187 c 2.203125,-0.21875 4.121093,-0.355469 4.257812,-0.339844 0.183594,0.05078 -0.08594,0.539062 -0.992187,1.835937 -2.828125,3.953125 -6.089844,10.113281 -7.773438,14.640625 -2.222656,6.003904 -3.550781,12.281254 -3.835937,18.121094 l -0.101563,2.23828 h 3.011719 l 0.203125,-2.77734 c 0.117188,-1.51563 0.386719,-3.88672 0.621094,-5.25 0.402344,-2.3711 1.398437,-6.78125 1.515625,-6.78125 0.03125,0 0.992187,0.33594 2.136719,0.75781 1.144531,0.42188 2.152343,0.78906 2.269531,0.83984 0.136719,0.0352 -0.117188,0.69141 -0.6875,1.82032 -1.363281,2.6914 -1.699219,4.03515 -1.683594,7.09765 0,2.28907 0.05078,2.66016 0.453125,3.8711 0.605469,1.80078 1.515625,3.30078 2.675781,4.375 1.800781,1.66797 3.632813,2.1875 6.039063,1.71875 3.199218,-0.625 5.671875,-2.54297 7.101562,-5.50391 0.90625,-1.85156 1.210938,-3.0625 1.480469,-5.63672 0.101563,-1.02734 0.203125,-1.86719 0.21875,-1.88672 0.01563,-0.0156 1.3125,0.4375 2.875,1.02735 1.582031,0.58984 2.878906,1.04297 2.910156,1.02734 0.07031,-0.0664 1.515625,-3.85156 1.484375,-3.90234 0,0 -3.199218,-1.19532 -7.066406,-2.64453 -3.871094,-1.44532 -7.085938,-2.65625 -7.136719,-2.70704 -0.05078,-0.0508 -0.117187,-1.09375 -0.167969,-2.32421 -0.132812,-4.039068 0.722657,-6.492192 2.542969,-7.167974 0.605469,-0.234375 2.371094,-0.234375 3.160157,-0.01563 2.039062,0.570313 3.566406,2.828125 3.804687,5.585938 0.117187,1.328116 0.01563,1.296866 2.1875,0.792966 2.238281,-0.523435 2.050781,-0.406247 1.882813,-1.214841 -0.707032,-3.210938 -2.457032,-6.324219 -4.40625,-7.824219 -1.75,-1.363281 -4.023438,-2.019531 -6.160157,-1.816406 -4.84375,0.472656 -7.25,3.902343 -7.25,10.316406 0,1.93359 -0.01563,2.10156 -0.285156,1.98438 -0.167969,-0.0664 -1.835937,-0.67187 -3.6875,-1.37892 l -3.398437,-1.26171 0.589843,-1.449219 c 0.839844,-2.101562 2.894531,-6.308594 4.019531,-8.226562 1.617188,-2.777344 4.847657,-7.457032 5.132813,-7.457032 0.06641,0 4.644531,2.929688 10.164063,6.496094 5.535156,3.585938 10.160156,6.511719 10.296874,6.53125 0.117188,0 0.703126,-0.742187 1.3125,-1.667968 l 1.074219,-1.683594 -1.816406,-1.175782 c -0.992187,-0.65625 -5.484375,-3.566406 -9.992187,-6.480468 -4.511719,-2.910156 -8.195313,-5.367188 -8.195313,-5.449219 0,-0.304687 5.300781,-5.4375 7.417969,-7.1875 5.417968,-4.476563 10.484375,-7.671875 17.062496,-10.785156 l 2.01954,-0.957031 1.04296,1.628906 c 0.58985,0.894531 1.0586,1.683594 1.0586,1.75 0,0.05078 -0.46875,0.152344 -1.04297,0.21875 -1.42969,0.167968 -3.11328,1.042968 -4.12109,2.171875 -0.91016,1.011719 -1.785161,2.792969 -2.070318,4.242187 l -0.203124,1.007813 -0.941407,-0.335938 C 97.71875,70 97.078125,69.914062 95.730469,69.914062 c -1.648438,0 -1.832031,0.03516 -2.671875,0.507813 -0.992188,0.554687 -1.917969,1.511719 -2.914063,3.011719 -3.078125,4.746094 -0.722656,11.121094 4.832031,13.074218 1.429688,0.503907 4.273438,0.6875 7.046878,0.488282 1.29687,-0.101563 2.375,-0.1875 2.39062,-0.21875 0.0508,-0.06641 -0.53906,-3.988282 -0.62109,-4.054688 -0.0352,-0.05078 -0.89453,-0.01953 -1.88672,0.05078 -4.828125,0.335937 -7,-0.40625 -8.042969,-2.761719 -0.738281,-1.664063 -0.402343,-3.753907 0.84375,-5.164063 0.6875,-0.792968 1.546875,-0.960937 3.027344,-0.574218 1.613281,0.421874 1.800781,0.605468 2.136719,2.085937 0.152346,0.707031 0.285156,1.3125 0.304686,1.332031 0.0469,0.05078 3.83594,-1.113281 3.91797,-1.195312 0.0352,-0.03516 -0.0664,-0.757813 -0.21875,-1.632813 -0.50391,-2.910156 -0.11719,-5.484375 0.99219,-6.679687 0.92578,-0.992188 3.19922,-1.734375 4.54297,-1.480469 0.57422,0.101563 0.6914,0.285156 3.92187,5.820313 1.84766,3.148437 3.41406,5.722656 3.48047,5.722656 0.10156,0 2.64063,-1.550782 3.44922,-2.121094 0.0352,-0.01563 -2.47266,-4.003906 -5.58594,-8.851562 -3.09375,-4.84375 -5.6875,-8.917969 -5.73437,-9.070313 -0.0859,-0.21875 0.3164,-0.402344 1.98437,-0.976563 l 2.10156,-0.703124 -0.23437,-0.792969 c -0.13672,-0.4375 -0.32031,-1.078125 -0.42188,-1.429688 -0.10156,-0.421875 -0.25,-0.621093 -0.45312,-0.621093 -0.15234,0 -1.68359,0.519531 -3.39844,1.160156 z M 76.5,107.625 l 3.0625,1.12891 0.203125,0.9414 c 0.503906,2.25391 0.183594,5.01563 -0.773437,6.91407 -0.472657,0.92578 -1.835938,2.23828 -2.691407,2.59375 -1.835937,0.77343 -4.171875,-0.1875 -5.148437,-2.10547 -0.992188,-1.94922 -0.640625,-5.73828 0.808594,-8.64844 0.453124,-0.91016 1.175781,-1.93359 1.359374,-1.93359 0.07031,0 1.5,0.5039 3.179688,1.10937 z m 0,0"
       style="fill:#000000;fill-opacity:1;fill-rule:nonzero;stroke:none;stroke-width:0.78195053"
       inkscape:connector-curvature="0" />
    <path
       id="path69"
       d="m 130.375,105.78906 -10.17969,24.19922 3.80078,0.11719 c 2.08594,0.0664 11.17188,0.11719 20.20703,0.0859 l 16.4375,-0.0352 -9.9414,-24.28125 c -5.46875,-13.34375 -9.9961,-24.265625 -10.04688,-24.265625 -0.0469,0 -4.67578,10.886719 -10.27734,24.179685 z m 0,0"
       style="fill:#000000;fill-opacity:1;fill-rule:nonzero;stroke:none;stroke-width:0.78195053"
       inkscape:connector-curvature="0" />
    <path
       id="path71"
       d="m 123.10547,134.41406 c 3.73437,3.07813 16.52344,13.47656 16.80859,13.66406 0.32031,0.19922 1.00781,-0.30468 9.33594,-7 l 8.98437,-7.21875 -9.2539,-0.10156 c -5.07813,-0.0508 -13.20703,-0.11719 -18.05078,-0.13672 l -8.80078,-0.0156 z m 0,0"
       style="fill:#000000;fill-opacity:1;fill-rule:nonzero;stroke:none;stroke-width:0.78195053"
       inkscape:connector-curvature="0" />
    <path
       id="path73"
       d="m 117.72266,135.82812 c -0.0352,0.11719 -3.71875,8.85157 -8.16016,19.39844 -11.019531,26.20313 -11.171875,26.53906 -11.105469,26.58985 0.03516,0.0312 26.652349,-21.30469 29.074219,-23.3086 l 0.72266,-0.60547 -5.08203,-11.0039 c -2.79297,-6.0586 -5.14844,-11.08985 -5.21485,-11.15625 -0.082,-0.082 -0.18359,-0.0312 -0.23437,0.0859 z m 0,0"
       style="fill:#000000;fill-opacity:1;fill-rule:nonzero;stroke:none;stroke-width:0.78195053"
       inkscape:connector-curvature="0" />
    <path
       id="path75"
       d="m 158.77344,145.41797 c -2.3711,5.03125 -4.72657,10.02734 -5.23047,11.10547 l -0.92578,1.96875 14.5039,11.84765 c 7.97266,6.51172 14.58594,11.87891 14.70313,11.94532 0.10156,0.0664 0,-0.35157 -0.23438,-0.92579 -0.23828,-0.58593 -1.69922,-4.17187 -3.25,-7.95703 -1.54687,-3.80468 -5.14843,-12.58593 -7.99218,-19.51953 -2.83985,-6.94922 -5.61719,-13.71484 -6.15625,-15.04297 -0.55469,-1.34765 -1.02735,-2.45703 -1.0586,-2.49218 -0.0352,-0.0312 -1.98828,4.05468 -4.35937,9.07031 z m 0,0"
       style="fill:#000000;fill-opacity:1;fill-rule:nonzero;stroke:none;stroke-width:0.78195053"
       inkscape:connector-curvature="0" />
    <path
       id="path77"
       d="m 150.5625,144.47656 c -4.10547,3.29688 -7.46875,6.0586 -7.46875,6.125 0,0.23438 6.67969,5.58594 6.8125,5.4336 0.20312,-0.23438 8.26172,-17.4336 8.19531,-17.5 -0.0508,-0.0312 -3.43359,2.64453 -7.53906,5.9414 z m 0,0"
       style="fill:#000000;fill-opacity:1;fill-rule:nonzero;stroke:none;stroke-width:0.78195053"
       inkscape:connector-curvature="0" />
    <path
       id="path79"
       d="m 123.54297,139.42969 c 0.0508,0.082 1.71484,3.69922 3.73437,8.05859 2.00391,4.33984 3.6875,7.95703 3.75391,8.02734 0.11719,0.10157 6.125,-4.61328 6.22266,-4.89843 0.0352,-0.11719 -13.25782,-11.1211 -13.64453,-11.27344 -0.082,-0.0352 -0.11719,0 -0.0664,0.0859 z m 0,0"
       style="fill:#000000;fill-opacity:1;fill-rule:nonzero;stroke:none;stroke-width:0.78195053"
       inkscape:connector-curvature="0" />
    <path
       id="path81"
       d="m 136.51562,155.76562 c -2.03515,1.61719 -3.7539,2.9961 -3.82031,3.0625 -0.11719,0.11719 7.45313,16.74219 7.75781,17.04688 0.10157,0.10156 7.60547,-15.64844 7.73829,-16.23828 0.0352,-0.13281 -1.69922,-1.66406 -3.96875,-3.51563 l -4.03907,-3.30078 z m 0,0"
       style="fill:#000000;fill-opacity:1;fill-rule:nonzero;stroke:none;stroke-width:0.78195053"
       inkscape:connector-curvature="0" />
    <path
       id="path83"
       d="m 121.625,167.73047 c -4.47656,3.60156 -12.19922,9.79297 -17.14453,13.78125 -4.945314,3.97265 -9.000001,7.32031 -9.000001,7.4375 0,0.11719 9.625001,14.01562 21.367191,30.8789 l 21.36718,30.67579 0.10157,-14.57422 c 0.0508,-8.00782 0.11718,-23.85938 0.15234,-35.21875 l 0.0312,-20.64453 -3.95313,-8.55079 c -2.1875,-4.69531 -4.14062,-8.94921 -4.375,-9.4375 l -0.40234,-0.875 z m 0,0"
       style="fill:#000000;fill-opacity:1;fill-rule:nonzero;stroke:none;stroke-width:0.78195053"
       inkscape:connector-curvature="0" />
    <path
       id="path85"
       d="m 150.69922,162.59766 c -0.21875,0.48828 -2.1875,4.66015 -4.35938,9.28906 l -3.96875,8.41406 -0.28515,33.65234 c -0.15235,18.51172 -0.25391,34.26172 -0.21875,35.01954 l 0.0469,1.34375 21.36719,-30.3711 c 11.76172,-16.6914 21.38672,-30.4414 21.41797,-30.55859 0.0195,-0.10156 -7.51953,-6.37891 -16.77344,-13.9336 l -16.82422,-13.73046 z m 0,0"
       style="fill:#000000;fill-opacity:1;fill-rule:nonzero;stroke:none;stroke-width:0.78195053"
       inkscape:connector-curvature="0" />
    <path
       id="path87"
       d="m 76.234375,227.68359 c -4.226563,0.75782 -9.421875,3.90625 -11.710937,7.13672 -3.128907,4.375 -3.148438,9.08594 -0.08594,13.86328 1.632812,2.5586 3.988281,4.3086 6.730469,5.01563 2.019531,0.52344 5.332031,0.28515 7.183593,-0.48828 l 0.554688,-0.23438 -1.53125,-2.54297 -1.511719,-2.52343 -1.042969,0.23828 c -2.828124,0.67187 -5.167968,-0.47266 -6.480468,-3.14844 -0.402344,-0.80859 -0.453125,-1.12891 -0.453125,-2.52344 0,-1.41406 0.05078,-1.71875 0.472656,-2.55859 0.957031,-1.96875 3.164063,-3.82031 6.257813,-5.28516 4.527343,-2.15234 8.160156,-1.27734 9.875,2.375 0.976562,2.10156 0.808593,3.76953 -0.570313,5.60156 l -0.808594,1.0625 1.363281,2.30469 c 0.757813,1.26172 1.480469,2.40625 1.597657,2.53906 0.1875,0.20313 0.40625,0.0703 1.449219,-1.00781 1.378906,-1.39844 2.304687,-3.04687 2.757812,-4.86328 0.402344,-1.59766 0.253906,-4.39062 -0.320312,-6.00781 C 87.97656,231 84.003904,227.78516 78.824217,227.58594 c -0.925781,-0.0352 -2.085938,0 -2.589844,0.0977 z m 0,0"
       style="fill:#000000;fill-opacity:1;fill-rule:nonzero;stroke:none;stroke-width:0.78195053"
       inkscape:connector-curvature="0" />
    <path
       id="path89"
       d="m 200.63281,228.49219 c -2.58984,0.64062 -5.78515,4.78125 -6.64453,8.63281 -0.30469,1.37891 -0.15234,3.41406 0.33594,4.44141 0.67187,1.3789 3.14844,3.71875 3.53515,3.33203 0.082,-0.082 0.6211,-1.17578 1.22657,-2.42188 l 1.07812,-2.28906 -0.40625,-0.30469 c -1.14453,-0.85547 -1.32812,-2.11719 -0.57031,-3.71875 0.94141,-2.01562 2.21875,-2.65625 3.33203,-1.69922 0.67188,0.57422 0.58594,1.3125 -0.47266,4.5625 -0.82421,2.52344 -0.875,2.8086 -0.89062,4.45703 -0.0195,1.61719 0.0156,1.85157 0.45312,2.72657 1.07813,2.20312 4.15625,3.88672 6.54688,3.61718 2.67187,-0.32031 5.04687,-2.94531 5.53516,-6.17578 0.16796,-1.04297 0.14843,-1.49609 -0.0859,-2.67578 -0.13281,-0.78906 -0.23438,-1.44531 -0.20313,-1.48047 0.0352,-0.0312 0.25391,0.0195 0.50782,0.1211 0.25,0.082 0.67187,0.16797 0.95703,0.16797 0.45312,0 0.55468,-0.13672 1.75,-2.52735 0.6914,-1.3789 1.26172,-2.57422 1.26172,-2.65625 0,-0.30469 -0.92579,-0.47265 -1.42969,-0.26953 -0.70703,0.28516 -1.16016,0.10156 -7.38672,-2.94531 -6.00781,-2.94531 -6.89844,-3.26563 -8.42969,-2.89453 z m 7.16797,8.44922 c 1.68359,0.90625 2.67578,2.26953 2.67578,3.69921 0,0.64063 -0.5039,2.1875 -0.89062,2.74219 -0.77344,1.09375 -2.33985,1.11328 -3.41797,0.0352 -0.83985,-0.83985 -0.875,-1.48047 -0.25,-3.95313 0.28515,-1.16015 0.51953,-2.32422 0.51953,-2.59375 0,-0.57031 0.15234,-0.57031 1.36328,0.0703 z m 0,0"
       style="fill:#000000;fill-opacity:1;fill-rule:nonzero;stroke:none;stroke-width:0.78195053"
       inkscape:connector-curvature="0" />
    <path
       id="path91"
       d="m 182.44531,241.29687 c -0.90625,1.12891 -1.66406,2.1211 -1.66406,2.22266 0,0.082 0.85937,0.875 1.91797,1.73438 l 1.91797,1.5625 1.73437,-2.1211 c 0.95703,-1.17578 1.7461,-2.1875 1.7461,-2.23437 0,-0.13672 -3.46485,-2.9961 -3.76563,-3.11328 -0.13672,-0.0508 -0.875,0.70703 -1.88672,1.94921 z m 0,0"
       style="fill:#000000;fill-opacity:1;fill-rule:nonzero;stroke:none;stroke-width:0.78195053"
       inkscape:connector-curvature="0" />
    <path
       id="path93"
       d="m 188,245.83984 c -0.92578,1.11328 -1.68359,2.08985 -1.71875,2.17188 -0.0312,0.10156 14.08203,11.73047 15.29297,12.60547 0.2539,0.18359 0.47265,-0.0195 1.85156,-1.6836 0.85938,-1.04297 1.64844,-2.01953 1.78516,-2.17187 0.19922,-0.23438 -0.0352,-0.47266 -1.91797,-2.01953 -1.19531,-0.95703 -4.64453,-3.76953 -7.67188,-6.25782 -3.03125,-2.47656 -5.62109,-4.54296 -5.73828,-4.59375 -0.15234,-0.0508 -0.85937,0.67188 -1.88281,1.94922 z m 0,0"
       style="fill:#000000;fill-opacity:1;fill-rule:nonzero;stroke:none;stroke-width:0.78195053"
       inkscape:connector-curvature="0" />
    <path
       id="path95"
       d="m 178.08984,246.86719 c -1.11328,0.82422 -2.08593,1.58203 -2.15625,1.64843 -0.082,0.0859 0.94532,1.61719 2.35547,3.48438 1.38281,1.85156 2.5586,3.43359 2.60938,3.51562 0.0664,0.11719 -0.42188,0.1875 -1.42969,0.16797 -1.39844,0 -1.66406,0.0508 -2.69141,0.53907 -1.28125,0.60546 -2.94531,2.08593 -3.60156,3.21484 -1.80078,3.0625 -1.32812,6.96484 1.29688,10.90234 2.37109,3.55078 5.51562,5.45313 9,5.45313 3.5664,0 6.96484,-2.87891 7.28515,-6.19141 l 0.11719,-1.1289 0.64062,0.84375 c 0.35157,0.45312 0.70704,0.83984 0.77344,0.83984 0.26953,0 4.20703,-3.04688 4.15625,-3.21484 -0.13672,-0.35157 -16.0664,-21.60547 -16.20312,-21.58985 -0.082,0 -1.04297,0.69141 -2.15235,1.51563 z m 5.4336,13.125 c 2.39062,1.17968 4.71093,4.96484 4.32422,7.01562 -0.3711,2.01953 -2.30469,3.55078 -4.22266,3.35156 -1.19531,-0.11718 -2.1875,-0.74218 -3.51563,-2.17187 -1.76953,-1.90234 -2.69531,-4.27344 -2.28906,-5.78906 0.45313,-1.66407 2.08594,-2.92578 3.80078,-2.92578 0.64063,0 1.16016,0.13281 1.90235,0.51953 z m 0,0"
       style="fill:#000000;fill-opacity:1;fill-rule:nonzero;stroke:none;stroke-width:0.78195053"
       inkscape:connector-curvature="0" />
    <path
       id="path97"
       d="m 88.363281,251.73047 c -4.070312,1.09375 -7.621093,4.74609 -8.714843,8.91797 -0.421876,1.61718 -0.386719,3.85547 0.08203,5.19922 0.757812,2.17187 2.457031,4.1914 4.847656,5.7539 1.75,1.14453 2.875,1.53125 4.660156,1.63281 1.851563,0.10157 2.976563,-0.13281 4.726563,-0.97656 4.828125,-2.32031 7.925787,-8.26172 6.730467,-12.87109 -0.60547,-2.28906 -2.437499,-4.60938 -4.996092,-6.27735 -2.421875,-1.5625 -4.929688,-2.03515 -7.335937,-1.3789 z m 4.558594,5.36719 c 0.773437,0.33593 1.867187,1.36328 2.238281,2.08593 0.691406,1.3125 0.402344,3.16407 -0.773437,4.98047 -1.597657,2.45703 -3.835938,4.00781 -5.601563,3.85547 -2.59375,-0.21875 -4.492187,-2.57422 -4.003906,-4.96484 0.234375,-1.2461 1.042969,-2.69141 2.152344,-3.92188 2.101562,-2.32031 3.96875,-2.96094 5.988281,-2.03515 z m 0,0"
       style="fill:#000000;fill-opacity:1;fill-rule:nonzero;stroke:none;stroke-width:0.78195053"
       inkscape:connector-curvature="0" />
    <path
       id="path99"
       d="m 124.67188,274.53125 c -1.04297,7.35156 -1.86719,13.41016 -1.81641,13.46094 0.0469,0.0508 1.05859,0.23437 2.25391,0.42187 1.1914,0.1836 2.37109,0.3711 2.625,0.40235 0.38671,0.0664 0.45312,0.0195 0.53515,-0.3711 0.37109,-1.73047 3.80469,-26.34765 3.6875,-26.44922 -0.10156,-0.0859 -4.86328,-0.85937 -5.26562,-0.84375 -0.0508,0 -0.96094,6.02735 -2.01953,13.37891 z m 0,0"
       style="fill:#000000;fill-opacity:1;fill-rule:nonzero;stroke:none;stroke-width:0.78195053"
       inkscape:connector-curvature="0" />
    <path
       id="path101"
       d="m 142.92578,261.94531 c -1.29687,0.13281 -2.40625,0.30078 -2.45703,0.35156 -0.0508,0.0703 0.52344,6.14454 1.26172,13.4961 1.23047,11.91406 1.41406,13.3789 1.66406,13.42969 0.25391,0.0508 5.51953,-0.4375 5.60547,-0.52344 0.0312,-0.0156 -0.57422,-6.10938 -1.33203,-13.54688 l -1.35938,-13.49218 -0.52343,0.0156 c -0.26954,0.0156 -1.5625,0.13281 -2.85938,0.26953 z m 0,0"
       style="fill:#000000;fill-opacity:1;fill-rule:nonzero;stroke:none;stroke-width:0.78195053"
       inkscape:connector-curvature="0" />
    <path
       id="path103"
       d="m 109.02344,263.72656 c -1.29688,0.30469 -2.26953,0.85938 -3.19531,1.82031 -0.72266,0.75782 -1.80079,2.4375 -1.64844,2.58985 0.0312,0.0351 1.14453,0.48828 2.45312,0.99219 l 2.39063,0.9414 0.80859,-0.83984 c 0.73828,-0.77344 0.875,-0.83985 1.59766,-0.83985 1.07812,0 2.53906,0.58594 3.33203,1.32813 0.80859,0.78906 0.90625,1.63281 0.23437,2.28906 -0.57031,0.58985 -1.61328,0.55469 -4.27343,-0.11719 -1.75,-0.4375 -2.45703,-0.53906 -4.05469,-0.53906 -1.75,-0.0156 -2.01953,0.0156 -2.85938,0.42188 -1.71484,0.80468 -3.01171,2.58984 -3.53515,4.84375 -0.722659,3.07812 1.36328,5.90625 5.13281,7 1.22656,0.37109 3.26563,0.26953 4.64453,-0.21875 l 0.95703,-0.33594 -0.082,1.04297 c -0.0664,0.80859 -0.0352,1.07812 0.13281,1.14453 4.14063,1.61719 5.23438,2.00391 5.31641,1.91797 0.13672,-0.13281 0.11719,-1.02735 -0.0312,-1.75 -0.15234,-0.67188 -0.0508,-0.97656 2.4375,-7.42188 1.09375,-2.84375 2.07031,-5.60156 2.15234,-6.14062 0.28907,-1.83203 -0.21484,-3.19531 -1.69921,-4.59375 -2.75782,-2.60938 -7.31641,-4.19141 -10.21094,-3.53516 z m 1.68359,12.06641 c 1.0586,0.18359 2.13672,0.33594 2.38672,0.33594 h 0.45703 l -0.47265,1.1289 c -0.64063,1.51563 -1.66407,2.67578 -2.58985,2.92578 -0.96094,0.25391 -2.59375,0.10157 -3.41797,-0.3164 -0.97265,-0.50782 -1.29297,-1.0625 -1.21093,-2.08985 0.10156,-0.97265 0.52343,-1.61328 1.33203,-2.01953 0.72265,-0.38672 1.14062,-0.36719 3.51562,0.0352 z m 0,0"
       style="fill:#000000;fill-opacity:1;fill-rule:nonzero;stroke:none;stroke-width:0.78195053"
       inkscape:connector-curvature="0" />
    <path
       id="path105"
       d="m 161.95312,264.53516 c -2.80859,0.47265 -4.86328,1.85156 -5.6875,3.80468 -0.19921,0.48828 -0.40234,0.89063 -0.45312,0.89063 -0.0508,0 -0.23438,-0.45313 -0.40234,-1.00781 -0.15235,-0.5586 -0.38672,-1.01172 -0.50391,-1.01172 -0.12109,0 -1.28125,0.35547 -2.59375,0.79297 l -2.38672,0.80468 3.0625,9.50782 c 1.66406,5.23437 3.05859,9.54296 3.09375,9.57421 0.0664,0.10157 5.26563,-1.53125 5.26563,-1.63281 0,-0.0469 -0.8086,-2.58984 -1.78125,-5.65234 -2.35547,-7.33594 -2.44141,-8.34766 -0.82422,-9.84375 0.85547,-0.78906 1.91797,-1.12891 3.3125,-1.0586 0.57422,0.0312 1.41406,0.73829 1.80078,1.53125 0.16797,0.33594 1.19531,3.3125 2.2539,6.64454 1.07813,3.3164 1.98438,6.07421 2.05469,6.125 0.14844,0.15234 5.29688,-1.53125 5.29688,-1.75 0,-0.4375 -4.35547,-13.67969 -4.77735,-14.50391 -0.92578,-1.83594 -2.26953,-2.85938 -4.22265,-3.21484 -1.09375,-0.19922 -1.3125,-0.19922 -2.50782,0 z m 0,0"
       style="fill:#000000;fill-opacity:1;fill-rule:nonzero;stroke:none;stroke-width:0.78195053"
       inkscape:connector-curvature="0" />
  </g>
</svg>
