<?xml version="1.0" encoding="UTF-8"?>
<svg xmlns="http://www.w3.org/2000/svg" xmlns:xlink="http://www.w3.org/1999/xlink" width="841.89pt" height="595.276pt" viewBox="0 0 841.89 595.276" version="1.1">
<g id="surface1">
<path style=" stroke:none;fill-rule:nonzero;fill:rgb(20.014954%,29.278564%,65.203857%);fill-opacity:1;" d="M 368.363281 402.425781 C 352.382813 402.3125 339.480469 389.261719 339.480469 373.335938 C 339.480469 357.296875 352.382813 344.136719 368.363281 344.136719 C 384.347656 344.136719 397.464844 357.191406 397.464844 373.335938 C 397.464844 389.371094 384.347656 402.425781 368.363281 402.425781 M 368.363281 332.96875 C 346.207031 332.96875 328.128906 351.105469 328.128906 373.335938 C 328.128906 395.566406 346.207031 413.59375 368.363281 413.59375 C 390.523438 413.59375 408.488281 395.566406 408.488281 373.335938 C 408.488281 351.105469 390.523438 332.96875 368.363281 332.96875 "/>
<path style=" stroke:none;fill-rule:nonzero;fill:rgb(20.014954%,29.278564%,65.203857%);fill-opacity:1;" d="M 303.492188 386.6875 L 247.714844 334.070313 L 247.714844 412.488281 L 258.847656 412.488281 L 258.847656 360.402344 L 314.738281 412.488281 L 314.738281 334.070313 L 303.492188 334.070313 Z M 303.492188 386.6875 "/>
<path style=" stroke:none;fill-rule:nonzero;fill:rgb(20.014954%,29.278564%,65.203857%);fill-opacity:1;" d="M 195.496094 401.316406 L 178.625 401.316406 L 178.625 345.242188 L 195.496094 345.242188 C 210.925781 345.242188 223.382813 357.851563 223.382813 373.335938 C 223.382813 388.707031 210.925781 401.316406 195.496094 401.316406 M 195.496094 334.070313 L 167.492188 334.070313 L 167.492188 412.488281 L 195.496094 412.488281 C 217.648438 412.488281 234.402344 394.902344 234.515625 373.335938 C 234.515625 351.769531 217.097656 334.070313 195.496094 334.070313 "/>
<path style=" stroke:none;fill-rule:nonzero;fill:rgb(20.014954%,29.278564%,65.203857%);fill-opacity:1;" d="M 460.824219 402.371094 C 445.402344 402.371094 431.855469 389.328125 431.855469 373.304688 C 431.855469 357.167969 445.511719 344.128906 460.824219 344.128906 C 468.53125 344.128906 475.359375 347.003906 480.425781 352.085938 L 486.066406 342.246094 C 479.335938 336.253906 470.535156 332.964844 460.824219 332.964844 C 438.355469 332.964844 420.621094 351.089844 420.621094 373.304688 C 420.621094 395.515625 438.683594 413.53125 460.714844 413.53125 C 470.433594 413.53125 479.425781 410.054688 486.273438 404.1875 L 480.648438 394.414063 C 475.582031 399.496094 468.421875 402.371094 460.824219 402.371094 "/>
<path style=" stroke:none;fill-rule:nonzero;fill:rgb(20.014954%,29.278564%,65.203857%);fill-opacity:1;" d="M 116.542969 333.929688 L 77.410156 412.488281 L 89.757813 412.488281 L 116.542969 357.339844 L 129.890625 384.824219 L 106.710938 384.824219 L 106.453125 385.371094 C 106.488281 385.375 106.617188 385.390625 106.816406 385.417969 C 122.085938 386.507813 135.085938 395.75 141.503906 408.820313 L 143.292969 412.488281 L 155.5625 412.488281 Z M 116.542969 333.929688 "/>
<path style=" stroke:none;fill-rule:nonzero;fill:rgb(20.014954%,29.278564%,65.203857%);fill-opacity:1;" d="M 468.933594 295.121094 L 480.164063 295.121094 L 480.164063 216.714844 L 468.933594 216.714844 Z M 468.933594 295.121094 "/>
<path style=" stroke:none;fill-rule:nonzero;fill:rgb(20.014954%,29.278564%,65.203857%);fill-opacity:1;" d="M 474.78125 197.347656 C 473.160156 196.402344 472.34375 194.652344 472.34375 192.355469 C 472.34375 189.785156 474.105469 187.222656 476.941406 187.222656 C 478.960938 187.222656 480.3125 188.167969 480.71875 190.195313 L 485.585938 187.628906 C 483.695313 183.710938 480.859375 181.679688 477.070313 181.679688 C 471.269531 181.679688 466.535156 186.273438 466.535156 192.625 C 466.535156 193.300781 466.941406 194.78125 467.753906 197.347656 L 462.347656 197.347656 L 462.347656 203.566406 L 485.714844 203.566406 L 485.714844 197.347656 Z M 474.78125 197.347656 "/>
<path style=" stroke:none;fill-rule:nonzero;fill:rgb(20.014954%,29.278564%,65.203857%);fill-opacity:1;" d="M 77.453125 261.613281 C 77.453125 261.765625 77.4375 261.914063 77.4375 262.066406 C 77.4375 280.238281 93.28125 295.15625 111.496094 295.15625 L 165.894531 295.15625 L 165.894531 216.738281 L 154.714844 216.738281 L 154.714844 284.125 L 111.28125 284.125 C 99.101563 284.125 88.324219 274.289063 88.324219 262.066406 C 88.324219 261.914063 88.335938 261.765625 88.339844 261.613281 Z M 77.453125 261.613281 "/>
<path style=" stroke:none;fill-rule:nonzero;fill:rgb(20.014954%,29.278564%,65.203857%);fill-opacity:1;" d="M 396.054688 283.988281 L 396.054688 295.121094 L 455.851563 295.121094 L 455.851563 272.152344 C 455.851563 253.980469 441.523438 240.234375 423.949219 240.144531 C 419.144531 240.144531 414.578125 241.210938 410.472656 243.125 L 416.058594 253.050781 C 418.484375 252.019531 421.148438 251.449219 423.945313 251.449219 C 434.988281 251.449219 444.046875 260.457031 444.046875 271.621094 L 444.046875 283.980469 Z M 396.054688 283.988281 "/>
<path style=" stroke:none;fill-rule:nonzero;fill:rgb(20.014954%,29.278564%,65.203857%);fill-opacity:1;" d="M 111.027344 254.410156 L 134.394531 254.410156 L 134.394531 248.195313 L 123.460938 248.195313 C 121.839844 247.246094 121.023438 245.496094 121.023438 243.199219 C 121.023438 240.632813 122.785156 238.066406 125.621094 238.066406 C 127.640625 238.066406 128.992188 239.011719 129.398438 241.039063 L 134.265625 238.472656 C 132.375 234.554688 129.539063 232.523438 125.75 232.523438 C 119.949219 232.523438 115.214844 237.121094 115.214844 243.46875 C 115.214844 244.144531 115.621094 245.628906 116.4375 248.195313 L 111.027344 248.195313 Z M 111.027344 254.410156 "/>
<path style=" stroke:none;fill-rule:nonzero;fill:rgb(20.014954%,29.278564%,65.203857%);fill-opacity:1;" d="M 382.859375 225.3125 L 371.695313 225.3125 L 371.695313 236.476563 L 382.859375 236.476563 Z M 382.859375 225.3125 "/>
<path style=" stroke:none;fill-rule:nonzero;fill:rgb(20.014954%,29.278564%,65.203857%);fill-opacity:1;" d="M 212.996094 284.097656 L 203.957031 284.097656 C 195.691406 284.097656 189.015625 277.339844 189.015625 269.042969 C 189.015625 260.804688 195.691406 254.050781 203.957031 254.050781 L 212.996094 254.050781 Z M 208 313.4375 L 208.023438 313.484375 L 215.511719 320.273438 C 220.371094 314.761719 223.371094 307.5 223.371094 299.613281 L 223.371094 295.183594 L 366.042969 295.183594 C 377.171875 295.183594 382.738281 289.195313 382.738281 277.128906 L 382.738281 242.902344 L 371.605469 242.902344 L 371.605469 272.917969 C 371.605469 276.507813 371.308594 279.542969 370.8125 280.738281 C 369.71875 282.933594 367.433594 284.03125 363.753906 284.03125 L 224.214844 284.03125 L 224.214844 242.902344 L 204.703125 242.902344 C 189.933594 242.902344 178.761719 254.625 178.6875 269.003906 C 178.6875 283.382813 190.300781 295.183594 204.703125 295.183594 L 213.128906 295.183594 L 213.128906 300.429688 C 213.128906 304.882813 211.1875 309.757813 208 313.4375 "/>
<path style=" stroke:none;fill-rule:nonzero;fill:rgb(20.014954%,29.278564%,65.203857%);fill-opacity:1;" d="M 727.003906 374.679688 C 723.457031 389.554688 716.191406 402.496094 705.835938 412.929688 L 762.6875 412.929688 C 773.46875 354.019531 734.660156 291.003906 671.136719 277.414063 C 684.105469 280.976563 739.824219 307.132813 727.003906 374.679688 "/>
<path style=" stroke:none;fill-rule:nonzero;fill:rgb(20.014954%,29.278564%,65.203857%);fill-opacity:1;" d="M 532.132813 182.320313 L 532.132813 412.929688 L 556.710938 412.941406 C 571.625 412.902344 575.074219 413.242188 583.226563 411.964844 C 618.386719 406.839844 650.542969 378.21875 654.015625 352.929688 C 659.214844 322.984375 642.921875 296.742188 611.640625 290.226563 C 611.085938 290.113281 610.476563 289.9375 609.832031 289.714844 C 608.71875 289.730469 593.46875 289.871094 581.71875 286.734375 C 581.574219 286.855469 574.972656 292.082031 577.679688 302.101563 C 577.679688 302.101563 562.015625 285.753906 571.96875 263.78125 C 571.96875 263.78125 576.792969 253.421875 593.167969 242.820313 C 593.296875 242.671875 593.421875 242.523438 593.546875 242.371094 C 597.929688 237.171875 608.4375 228.003906 623.679688 220.761719 C 631.460938 217.265625 644.816406 212.246094 659.769531 210.964844 C 727.972656 204.621094 762.6875 256.808594 762.6875 256.808594 L 762.6875 182.320313 Z M 532.132813 182.320313 "/>
<path style=" stroke:none;fill-rule:nonzero;fill:rgb(20.014954%,29.278564%,65.203857%);fill-opacity:1;" d="M 699.609375 236.859375 C 666.601563 232.453125 638.847656 240.992188 616.957031 256.246094 C 616.957031 256.253906 623.386719 252.554688 633.304688 249.007813 C 634.765625 255.351563 640.097656 260.695313 647.296875 262.195313 C 656.9375 264.199219 666.261719 258.5625 668.125 249.601563 C 668.632813 247.167969 668.53125 244.738281 667.929688 242.449219 C 730.972656 240.535156 762.679688 288.617188 762.679688 288.617188 L 762.6875 268.496094 L 762.6875 267.875 C 753.078125 258.15625 729.207031 240.144531 699.609375 236.859375 "/>
<path style="fill:none;stroke-width:6;stroke-linecap:butt;stroke-linejoin:miter;stroke:rgb(39.610291%,38.511658%,38.78479%);stroke-opacity:1;stroke-miterlimit:10;" d="M 3786.664063 -481.888062 L -1599.160156 -481.888062 L -1599.160156 1077.166625 L 3786.664063 1077.166625 Z M 3786.664063 -481.888062 " transform="matrix(1,0,0,-1,0,595.276)"/>
</g>
</svg>
