<?xml version="1.0" encoding="UTF-8" standalone="no"?>
<!-- Created with Inkscape (http://www.inkscape.org/) -->

<svg
   xmlns:dc="http://purl.org/dc/elements/1.1/"
   xmlns:cc="http://creativecommons.org/ns#"
   xmlns:rdf="http://www.w3.org/1999/02/22-rdf-syntax-ns#"
   xmlns:svg="http://www.w3.org/2000/svg"
   xmlns="http://www.w3.org/2000/svg"
   version="1.1"
   width="892.91339"
   height="303.66141"
   id="svg3528">
  <defs
     id="defs3530">
    <clipPath
       id="clipPath3187">
      <path
         d="m 36.44,720 102.324,0 0,34.79 -102.324,0 0,-34.79 z"
         id="path3189" />
    </clipPath>
  </defs>
  <metadata
     id="metadata3533">
    <rdf:RDF>
      <cc:Work
         rdf:about="">
        <dc:format>image/svg+xml</dc:format>
        <dc:type
           rdf:resource="http://purl.org/dc/dcmitype/StillImage" />
        <dc:title></dc:title>
      </cc:Work>
    </rdf:RDF>
  </metadata>
  <g
     transform="translate(32.523486,-332.96083)"
     id="layer1">
    <g
       transform="matrix(8.6571365,0,0,-8.6571365,-344.44623,6870.8815)"
       clip-path="url(#clipPath3187)"
       id="g3185">
      <g
         transform="translate(42.6884,743.9502)"
         id="g3191">
        <path
           d="m 0,0 0,0.413 0,5.413 c 0,0 1.818,0.312 1.799,-2.186 L 1.8,0.413 1.8,0.207 1.8,0 1.799,-3.226 C 1.818,-5.724 0,-5.412 0,-5.412 L 0,0 z m -0.022,-10.456 1.731,0.005 c 1.351,0 2.445,0.204 3.282,0.613 0.837,0.408 1.412,0.994 1.726,1.757 0.313,0.764 0.47,1.979 0.47,3.646 l 0,4.534 c 0,0.28 -0.003,0.543 -0.008,0.798 10e-4,0.12 0.004,0.238 0.004,0.364 l 0,2.273 C 7.183,5.169 7.102,6.375 6.939,7.155 6.776,7.934 6.465,8.599 6.007,9.147 5.547,9.695 4.798,10.133 3.885,10.423 2.972,10.714 1.73,10.84 0.032,10.84 l -6.277,0 0,-26.111 6.223,0 0,4.815 z"
           id="path3193"
           style="fill:#0065a4;fill-opacity:1;fill-rule:nonzero;stroke:none" />
      </g>
      <g
         transform="translate(36.44,725.4607)"
         id="g3195">
        <path
           d="m 0,0 c 0,-3.358 2.437,-4.363 4.26,-4.652 0.269,-0.042 0.524,-0.069 0.757,-0.086 0.04,-0.003 0.336,-0.007 0.336,-0.007 l 36.618,0 0,5.621 L 0,0.875 0,0 z"
           id="path3197"
           style="fill:#0065a4;fill-opacity:1;fill-rule:nonzero;stroke:none" />
      </g>
      <path
         d="m 78.936,720.715 1.635,0 0,5.621 -1.635,0 0,-5.621 z"
         id="path3199"
         style="fill:#0065a4;fill-opacity:1;fill-rule:nonzero;stroke:none" />
      <path
         d="m 81.182,720.715 1.452,0 0,5.621 -1.452,0 0,-5.621 z"
         id="path3201"
         style="fill:#0065a4;fill-opacity:1;fill-rule:nonzero;stroke:none" />
      <g
         transform="translate(116.2744,737.4092)"
         id="g3203">
        <path
           d="m 0,0 0.001,0 0,0.619 -0.001,0 0,2.911 0.001,0 0,0.618 L 0,4.148 0,5.92 C 0.001,7.008 0.049,7.904 0.697,8.052 0.759,8.066 0.827,8.073 0.9,8.073 0.91,8.073 1.073,8.055 1.136,8.038 1.753,7.867 1.8,6.987 1.801,5.92 l 0,-1.772 0,-0.615 0,-2.918 0,-0.615 0,-1.772 C 1.8,-2.839 1.753,-3.719 1.136,-3.889 1.073,-3.907 0.91,-3.925 0.9,-3.925 0.827,-3.925 0.759,-3.918 0.697,-3.904 0.049,-3.755 0.001,-2.86 0,-1.772 L 0,0 z m -5.335,-7.314 c 0.316,-0.505 0.775,-0.897 1.376,-1.177 0.602,-0.28 1.314,-0.42 2.132,-0.42 0.19,0 0.375,0.014 0.558,0.033 1.216,0.13 3.069,0.966 3.069,0.966 l 0,-0.832 5.982,0 0,8.744 0,4.148 0,13.233 -5.982,0 0,-5.045 c 0,0 -1.853,0.56 -3.069,0.69 -0.183,0.02 -0.368,0.033 -0.558,0.033 -0.818,0 -1.53,-0.14 -2.132,-0.419 C -4.56,12.36 -5.019,11.967 -5.335,11.462 -5.651,10.957 -5.841,10.463 -5.906,9.979 -5.97,9.495 -6.002,8.463 -6.002,6.882 l 0,-2.734 0,-4.148 0,-2.734 c 0,-1.58 0.032,-2.613 0.096,-3.096 0.065,-0.484 0.255,-0.979 0.571,-1.484"
           id="path3205"
           style="fill:#0065a4;fill-opacity:1;fill-rule:nonzero;stroke:none" />
      </g>
      <g
         transform="translate(72.2585,738.3393)"
         id="g3207">
        <path
           d="m 0,0 c 0.32,0.283 0.69,0.591 1.123,0.913 l -10e-4,-3.651 -0.001,0 c 0,-1.052 -0.046,-1.92 -0.637,-2.109 -0.071,-0.022 -0.149,-0.036 -0.236,-0.038 0,0 -0.229,0.009 -0.312,0.038 -0.572,0.203 -0.615,1.067 -0.616,2.109 l 0,0 0,1.347 c 0,0 -0.079,0.72 0.68,1.391 m -5.755,-8.238 c 0.309,-0.505 0.8,-0.903 1.389,-1.183 0.591,-0.28 1.287,-0.42 2.089,-0.42 0.186,0 0.367,0.014 0.546,0.033 1.191,0.13 3.007,0.966 3.007,0.966 l 0,-0.832 5.859,0 0,4.301 0.001,0 0,6.455 c 0,3.536 -0.103,5.872 -0.31,7.007 C 6.618,9.223 6.001,10.18 4.975,10.96 3.948,11.739 2.423,12.129 0.4,12.129 c -1.688,0 -3.06,-0.344 -4.115,-1.032 C -4.772,10.409 -5.476,9.615 -5.825,8.718 -6.176,7.82 -6.351,6.543 -6.351,4.887 l 0,-1.364 5.671,0 0,1.466 0.001,0 c 0.001,1.081 0.049,1.969 0.689,2.123 0.056,0.013 0.202,0.03 0.211,0.03 0.07,0 0.135,-0.006 0.195,-0.02 0.657,-0.141 0.705,-1.04 0.706,-2.133 l 0,-1.226 -3.81,-1.794 C -4.243,1.282 -4.749,0.845 -5.245,0.363 -6.228,-0.591 -6.351,-1.526 -6.351,-3.129 l 0,-1.756 c 0,-0.08 0.038,-1.561 0.078,-1.875 0.063,-0.484 0.208,-0.973 0.518,-1.478"
           id="path3209"
           style="fill:#0065a4;fill-opacity:1;fill-rule:nonzero;stroke:none" />
      </g>
      <g
         transform="translate(56.9941,743.3381)"
         id="g3211">
        <path
           d="M 0,0 C 0.002,1.103 0.052,2.005 0.729,2.132 0.774,2.14 0.892,2.153 0.901,2.153 1.018,2.153 1.12,2.135 1.208,2.1 1.758,1.882 1.801,1.027 1.802,0 l 0,-2.077 L 0,-2.077 0,0 z m -4.542,-12.812 c 0.538,-0.694 1.29,-1.239 2.258,-1.636 0.967,-0.398 2.082,-0.597 3.346,-0.597 1.303,0 2.386,0.201 3.249,0.604 0.864,0.404 1.577,1.008 2.14,1.815 0.562,0.806 0.92,1.564 1.073,2.274 0.142,0.658 0.217,1.582 0.228,2.767 l 0.006,0 0,1.897 -5.956,0 0,-1.991 C 1.8,-8.75 1.753,-9.632 1.13,-9.798 1.069,-9.814 0.91,-9.833 0.9,-9.833 0.799,-9.833 0.708,-9.819 0.628,-9.792 0.045,-9.596 0.001,-8.727 0,-7.679 l 0,3.343 7.754,0 0,2.838 c 0,2.074 -0.22,3.685 -0.659,4.83 C 6.656,4.477 5.891,5.396 4.8,6.09 3.709,6.783 2.325,7.13 0.647,7.13 -0.725,7.13 -1.939,6.842 -2.995,6.267 -4.051,5.692 -4.811,4.864 -5.275,3.783 -5.739,2.703 -5.971,1.227 -5.971,-0.643 l 0,-6.242 c 0,-1.591 0.104,-2.803 0.311,-3.637 0.208,-0.833 0.58,-1.596 1.118,-2.29"
           id="path3213"
           style="fill:#0065a4;fill-opacity:1;fill-rule:nonzero;stroke:none" />
      </g>
      <g
         transform="translate(112.7962,724.0295)"
         id="g3215">
        <path
           d="m 0,0 -1.511,0 0,1.027 1.67,0 C 0.311,1.027 0.518,1.011 0.676,0.868 0.78,0.773 0.82,0.637 0.82,0.51 0.82,0.008 0.311,0 0,0 M 2.474,-0.548 C 2.706,-0.27 2.832,0.12 2.832,0.518 2.832,1.082 2.577,1.632 2.172,1.942 1.703,2.284 1.099,2.291 0.605,2.3 l -4.129,0 0,-5.614 2.013,0 0,2.041 1.074,0 1.152,-2.041 2.227,0 -1.406,2.241 c 0.239,0.063 0.62,0.143 0.938,0.525"
           id="path3217"
           style="fill:#0065a4;fill-opacity:1;fill-rule:nonzero;stroke:none" />
      </g>
      <g
         transform="translate(104.5316,722.8765)"
         id="g3219">
        <path
           d="m 0,0 3.62,0 0,1.273 -3.611,0 0,0.915 3.906,0 0,1.265 -5.919,0 0,-5.614 5.999,0 0,1.27 L 0,-0.891 0,0 z"
           id="path3221"
           style="fill:#0065a4;fill-opacity:1;fill-rule:nonzero;stroke:none" />
      </g>
      <g
         transform="translate(103.2449,738.0278)"
         id="g3223">
        <path
           d="m 0,0 0,-2.386 c -0.001,-1.09 -0.05,-1.984 -0.706,-2.127 -0.052,-0.011 -0.185,-0.026 -0.195,-0.026 -0.074,0 -0.141,0.007 -0.204,0.022 -0.648,0.148 -0.695,1.043 -0.696,2.131 l 0,5.301 0,0 0,2.386 c 0.002,1.093 0.05,1.989 0.71,2.128 0.051,0.011 0.181,0.026 0.191,0.026 0.048,0 0.094,-0.004 0.138,-0.009 C -0.05,7.343 -0.001,6.425 0,5.301 L 0,0 z M 4.592,10.086 C 4.07,10.784 3.326,11.351 2.364,11.787 1.402,12.222 0.25,12.44 -1.093,12.44 -2.692,12.44 -4.004,12.102 -5.031,11.424 -6.057,10.747 -6.768,9.849 -7.163,8.731 -7.558,7.612 -7.755,6.059 -7.755,4.07 l 0,-5.483 c 0,-1.817 0.108,-3.18 0.326,-4.089 0.216,-0.908 0.58,-1.682 1.088,-2.322 0.508,-0.64 1.221,-1.118 2.139,-1.436 0.918,-0.317 2.038,-0.475 3.361,-0.475 1.185,0 2.233,0.185 3.146,0.556 0.913,0.371 1.661,0.946 2.243,1.726 0.582,0.779 0.962,1.618 1.14,2.515 0.178,0.898 0.267,2.309 0.267,4.235 l 0,5.241 c 0,1.516 -0.096,2.645 -0.289,3.387 -0.192,0.742 -0.551,1.461 -1.074,2.161"
           id="path3225"
           style="fill:#0065a4;fill-opacity:1;fill-rule:nonzero;stroke:none" />
      </g>
      <g
         transform="translate(127.4279,724.7542)"
         id="g3227">
        <path
           d="m 0,0 c -0.174,-0.358 -0.206,-0.446 -0.342,-0.756 -0.127,0.302 -0.152,0.35 -0.295,0.644 l -0.931,1.688 -2.347,0 2.578,-3.948 0,-1.67 1.989,0 0,1.67 2.547,3.948 -2.324,0 L 0,0 z"
           id="path3229"
           style="fill:#0065a4;fill-opacity:1;fill-rule:nonzero;stroke:none" />
      </g>
      <path
         d="m 83.331,720.715 1.307,0 0,5.621 -1.307,0 0,-5.621 z"
         id="path3231"
         style="fill:#0065a4;fill-opacity:1;fill-rule:nonzero;stroke:none" />
      <g
         transform="translate(120.0399,722.8044)"
         id="g3233">
        <path
           d="M 0,0 1.464,0 C 1.336,-0.549 0.62,-0.978 -0.175,-0.978 c -0.915,0 -1.743,0.533 -1.743,1.678 0,0.836 0.533,1.814 1.862,1.814 0.427,0 0.859,-0.102 1.224,-0.476 l 2.055,0 C 3.188,2.237 2.958,2.615 2.944,2.634 2.911,2.679 2.878,2.719 2.848,2.755 2.755,2.864 2.607,2.998 2.569,3.029 2.199,3.345 1.768,3.525 1.226,3.645 0.795,3.732 0.35,3.779 -0.088,3.779 -1.114,3.779 -2.156,3.58 -2.944,2.928 -3.549,2.427 -3.827,1.806 -3.93,1.25 -3.97,1.051 -3.985,0.844 -3.985,0.645 c 0,-1.966 1.535,-2.904 3.205,-2.904 1.114,0 1.687,0.302 1.99,0.486 0.215,0.133 0.293,0.205 0.397,0.301 l 0,-0.62 1.734,0 0,3.365 L 0,1.273 0,0 z"
           id="path3235"
           style="fill:#0065a4;fill-opacity:1;fill-rule:nonzero;stroke:none" />
      </g>
      <g
         transform="translate(99.7162,725.0564)"
         id="g3237">
        <path
           d="m 0,0 c 0,-0.756 0.008,-1.027 0.039,-1.798 -0.398,0.517 -0.501,0.644 -0.994,1.177 l -1.726,1.894 -1.663,0 0,-5.614 1.989,0 0,1.19 c -0.008,0.717 -0.008,0.931 -0.032,1.902 0.255,-0.319 0.35,-0.438 0.636,-0.772 l 2.058,-2.32 1.674,0 0,5.614 L 0,1.273 0,0 z"
           id="path3239"
           style="fill:#0065a4;fill-opacity:1;fill-rule:nonzero;stroke:none" />
      </g>
      <g
         transform="translate(88.3332,741.5575)"
         id="g3241">
        <path
           d="m 0,0 -0.001,0 0,-0.619 0.001,0 0,-2.911 -0.001,0 0,-0.618 0.001,0 0,-1.772 c -0.001,-1.088 -0.049,-1.984 -0.697,-2.132 -0.062,-0.014 -0.13,-0.021 -0.203,-0.021 -0.01,0 -0.173,0.018 -0.236,0.035 -0.617,0.171 -0.665,1.05 -0.666,2.118 l 0,1.772 0,0.614 0,2.919 0,0.615 0,1.771 c 0.001,1.068 0.049,1.948 0.666,2.118 0.063,0.018 0.226,0.036 0.236,0.036 0.073,0 0.141,-0.007 0.203,-0.021 C -0.049,3.755 -0.001,2.86 0,1.771 L 0,0 z m 1.827,-13.059 c 0.818,0 1.529,0.14 2.132,0.419 0.601,0.28 1.06,0.673 1.376,1.178 0.316,0.505 0.506,0.999 0.57,1.483 0.064,0.484 0.097,1.516 0.097,3.096 l 0,2.735 0,4.148 0,2.734 C 6.002,4.314 5.969,5.347 5.905,5.83 5.841,6.314 5.651,6.809 5.335,7.314 5.019,7.819 4.56,8.211 3.959,8.491 3.356,8.771 2.645,8.911 1.827,8.911 1.637,8.911 1.451,8.898 1.269,8.878 0.053,8.748 -1.801,8.187 -1.801,8.187 l 0,5.046 -5.981,0 0,-13.233 0,-4.148 0,-8.744 5.981,0 0,0.792 c 0,0 1.854,-0.796 3.07,-0.926 0.182,-0.02 0.368,-0.033 0.558,-0.033"
           id="path3243"
           style="fill:#0065a4;fill-opacity:1;fill-rule:nonzero;stroke:none" />
      </g>
      <path
         d="m 85.482,720.715 1.042,0 0,5.621 -1.042,0 0,-5.621 z"
         id="path3245"
         style="fill:#0065a4;fill-opacity:1;fill-rule:nonzero;stroke:none" />
      <g
         transform="translate(90.6294,722.8765)"
         id="g3247">
        <path
           d="m 0,0 3.621,0 0,1.273 -3.613,0 0,0.915 3.907,0 0,1.265 -5.92,0 0,-5.614 6,0 0,1.27 L 0,-0.891 0,0 z"
           id="path3249"
           style="fill:#0065a4;fill-opacity:1;fill-rule:nonzero;stroke:none" />
      </g>
      <g
         transform="translate(132.5183,749.7772)"
         id="g3251">
        <path
           d="m 0,0 0,-9.696 0,-1.159 0,-5.413 c 0,0 -1.818,-0.311 -1.799,2.186 l 0,3.227 0,0.953 0,0.206 0,9.696 -5.384,0 0,-8.29 -0.002,-0.799 0,-6.166 c 0.008,-1.601 0.163,-2.777 0.468,-3.521 0.313,-0.763 0.888,-1.349 1.726,-1.757 0.837,-0.409 1.931,-0.613 3.282,-0.613 l 1.731,-0.004 0,-8.023 c 0,0 6.223,-0.604 6.223,4.764 L 6.245,0 0,0 z"
           id="path3253"
           style="fill:#0065a4;fill-opacity:1;fill-rule:nonzero;stroke:none" />
      </g>
    </g>
  </g>
</svg>
